<?xml version="1.0" encoding="UTF-8" standalone="no"?>
<svg width="2179px" height="604px" viewBox="0 0 2179 604" version="1.1" xmlns="http://www.w3.org/2000/svg" xmlns:xlink="http://www.w3.org/1999/xlink">
    <!-- Generator: Sketch 41.2 (35397) - http://www.bohemiancoding.com/sketch -->
    <title>yoga_new</title>
    <desc>Created with Sketch.</desc>
    <defs>
        <polygon id="path-1" points="284.96 0.129 284.96 315.852 0.49 315.852 0.49 0.129 284.96 0.129"></polygon>
    </defs>
    <g id="Page-1" stroke="none" stroke-width="1" fill="none" fill-rule="evenodd">
        <g id="Artboard" transform="translate(-118.000000, -82.000000)">
            <g id="yoga_new" transform="translate(118.000000, 82.000000)">
                <g id="Group-3" transform="translate(1894.000000, 152.000000)">
                    <mask id="mask-2" fill="white">
                        <use xlink:href="#path-1"></use>
                    </mask>
                    <g id="Clip-2"></g>
                    <path d="M66.78,124.974 C73.62,80.795 106.64,49.99 147.26,49.99 C167.57,49.99 184.72,56.495 196.86,68.801 C209.99,82.106 216.81,101.522 216.59,124.974 L66.78,124.974 Z M248.33,41.979 C223.54,14.601 188.59,0.129 147.26,0.129 C105.5,0.129 67.82,16.202 41.17,45.385 C14.94,74.105 0.49,114.1 0.49,158 C0.49,206.035 17.81,246.644 50.58,275.441 C80.24,301.5 120.43,315.852 163.75,315.852 C200.66,315.852 236.46,305.491 267.29,285.889 C267.44,285.797 267.53,285.638 267.53,285.467 L267.53,224.122 C267.53,223.933 267.42,223.761 267.25,223.676 C267.09,223.59 266.88,223.607 266.73,223.717 C236.3,245.818 201.47,257.99 168.64,257.99 C110.57,257.99 69.07,221.932 65.21,168.206 L283.41,167.9 C283.67,167.9 283.88,167.705 283.91,167.45 C288.88,117.348 276.24,72.788 248.33,41.979 L248.33,41.979 Z" id="Fill-1" fill="#FFFFFF" mask="url(#mask-2)"></path>
                </g>
                <g id="Group-9" transform="translate(308.000000, 15.000000)" fill="#FFFFFF">
                    <path d="M151.125,402.775 C108.404,402.775 65.155,365.755 65.155,295 C65.155,231.542 100.507,187.222 151.125,187.222 C201.743,187.222 237.095,231.542 237.095,295 C237.095,365.002 192.802,402.775 151.125,402.775 Z M151.125,137.129 C109.406,137.129 71.072,153.555 43.185,183.38 C15.76,212.71 0.657,252.351 0.657,295 C0.657,337.647 15.76,377.285 43.185,406.614 C71.073,436.439 109.407,452.864 151.125,452.864 C192.844,452.864 231.178,436.439 259.066,406.614 C286.491,377.285 301.594,337.647 301.594,295 C301.594,252.351 286.491,212.71 259.066,183.38 C231.179,153.555 192.845,137.129 151.125,137.129 L151.125,137.129 Z" id="Fill-4"></path>
                    <path d="M1344.67,148.845 L1286.45,148.845 C1286.17,148.845 1285.95,149.068 1285.95,149.345 L1285.95,441.57 C1285.95,441.846 1286.17,442.07 1286.45,442.07 L1344.59,442.07 C1344.87,442.07 1345.09,441.846 1345.09,441.57 L1345.17,149.345 C1345.17,149.212 1345.12,149.085 1345.03,148.991 C1344.93,148.897 1344.81,148.845 1344.67,148.845" id="Fill-6"></path>
                    <path d="M807.53,293.055 L807.53,381.046 C789.22,395.794 765.74,405.314 747.66,405.314 C732.8,405.314 721.15,401.47 713.04,393.888 C703.63,385.125 699.97,376.962 699.97,364.777 C699.97,352.174 704.6,341.512 713.74,333.089 C722.56,324.968 738.88,316.412 762.22,307.657 C772.73,303.713 794.83,296.899 807.53,293.055 Z M1194.86,0.881 L1136.63,0.881 C1136.36,0.881 1136.13,1.104 1136.13,1.381 L1136.13,289.717 L1007.97,289.717 L1007.98,149.345 C1007.98,149.212 1007.93,149.085 1007.83,148.991 C1007.74,148.897 1007.61,148.845 1007.48,148.845 L996.99,148.845 C996.72,148.845 996.49,149.068 996.49,149.345 L996.49,289.717 L867.74,289.717 C867.77,274.34 867.79,253.859 867.79,246.139 C867.79,211.078 858.58,183.672 840.42,164.683 C822.38,145.816 796.47,136.25 763.41,136.25 C732.28,136.25 695.99,144.822 655.557,161.729 C655.371,161.807 655.25,161.989 655.25,162.19 L655.25,222.709 C655.25,222.881 655.338,223.041 655.484,223.132 C655.63,223.223 655.812,223.233 655.967,223.16 C696.05,203.84 728.79,194.044 753.27,194.044 C788.49,194.044 806.73,213.853 807.48,252.923 C787.43,257.965 739.87,270.169 721.66,276.925 C691.727,288.031 671.236,300.143 657.172,315.045 C642.693,330.383 634.389,351.699 634.389,373.527 C634.389,395.969 642.244,414.878 657.736,429.727 C672.559,443.949 695.35,452.105 720.27,452.105 C751.81,452.105 782.25,440.614 810.75,417.952 C816.66,444.705 841.79,454.265 863.5,454.265 C883.08,454.265 902.36,446.937 913.81,435.141 C913.9,435.047 913.95,434.922 913.95,434.792 L913.95,400.577 C913.95,400.401 913.86,400.238 913.71,400.148 C913.56,400.056 913.37,400.052 913.21,400.136 C905,404.54 897.49,406.772 890.91,406.773 C883.71,406.773 878.04,404.095 874.05,398.814 C869.77,393.155 867.6,384.724 867.6,373.757 C867.6,361.218 867.64,340.749 867.68,318.63 L867.72,301.186 L996.49,301.197 L996.49,441.57 C996.49,441.846 996.72,442.07 996.99,442.07 L1007.46,442.07 C1007.74,442.07 1007.96,441.846 1007.96,441.57 L1007.97,301.197 L1136.13,301.201 L1136.13,441.57 C1136.13,441.846 1136.36,442.07 1136.63,442.07 L1194.78,442.07 C1195.06,442.07 1195.28,441.846 1195.28,441.57 L1195.36,1.381 C1195.36,1.248 1195.31,1.121 1195.21,1.027 C1195.12,0.934 1194.99,0.881 1194.86,0.881 L1194.86,0.881 Z" id="Fill-7"></path>
                    <path d="M1316.65,34.172 C1295.64,34.172 1278.55,51.268 1278.55,72.281 C1278.55,93.292 1295.64,110.386 1316.65,110.386 C1337.67,110.386 1354.76,93.292 1354.76,72.281 C1354.76,51.268 1337.67,34.172 1316.65,34.172" id="Fill-8"></path>
                </g>
                <g id="Group-13" fill="#FFFFFF">
                    <path d="M1881.03,59.108 C1894.29,59.108 1909.52,61.463 1926.31,66.107 C1926.46,66.15 1926.62,66.118 1926.74,66.023 C1926.87,65.929 1926.94,65.782 1926.94,65.625 L1926.94,8.44 C1926.94,8.214 1926.79,8.016 1926.57,7.958 C1908.52,3.078 1890.88,0.604 1874.12,0.604 C1802.23,0.604 1755.78,45.31 1755.78,114.498 C1755.78,117.801 1755.79,140.318 1755.79,163.227 L1713.74,163.227 C1713.47,163.227 1713.24,163.451 1713.24,163.727 L1713.24,205.858 C1713.24,205.991 1713.29,206.118 1713.39,206.212 C1713.48,206.306 1713.61,206.358 1713.74,206.358 L1755.8,206.348 C1755.83,308.706 1755.88,435.14 1755.92,455.342 C1755.92,455.618 1756.14,455.841 1756.42,455.841 L1814.54,455.841 C1814.82,455.841 1815.04,455.618 1815.04,455.341 L1815.04,206.335 L1879.28,206.319 C1879.55,206.319 1879.78,206.095 1879.78,205.819 L1879.78,163.727 C1879.78,163.451 1879.55,163.227 1879.28,163.227 L1815.04,163.227 L1815.04,130.435 C1815.04,83.773 1837.86,59.108 1881.03,59.108" id="Fill-10"></path>
                    <path d="M383.583,15.549 C383.495,15.388 383.327,15.289 383.144,15.289 L313.984,15.289 C313.808,15.289 313.644,15.382 313.554,15.534 L199.101,209.004 L78.056,15.523 C77.964,15.377 77.804,15.289 77.632,15.289 L0.501,15.289 C0.318,15.289 0.15,15.388 0.062,15.548 C-0.026,15.708 -0.02,15.903 0.079,16.057 L158.004,263.929 L158.004,456.266 C158.004,456.542 158.228,456.766 158.504,456.766 L224.137,456.766 C224.413,456.766 224.637,456.542 224.637,456.266 L224.637,263.93 L383.565,16.059 C383.664,15.905 383.67,15.709 383.583,15.549" id="Fill-12"></path>
                </g>
                <path d="M815.361,255.327 C815.361,292.942 797.027,315.399 766.317,315.399 C734.942,315.399 716.948,293.503 716.948,255.327 C716.948,215.991 735.865,191.555 766.317,191.555 C795.652,191.555 815.361,217.183 815.361,255.327 Z M769.946,561.255 C721.189,561.255 690.901,541.044 690.901,508.509 C690.901,468.094 756.373,455.931 759.428,455.389 C762.266,456.144 765.533,456.958 768.989,457.819 C800.054,465.555 852.045,478.503 852.045,511.37 C852.045,527.91 844.342,540.641 829.149,549.21 C815.18,557.09 794.707,561.255 769.946,561.255 Z M832.373,413.629 C822.697,410.616 812.641,407.792 802.915,405.062 C771.718,396.304 742.251,388.032 742.251,377.559 C742.251,370.119 755.695,366.599 774.302,361.728 C794.948,356.324 820.644,349.597 841.719,334.214 C866.719,315.967 878.872,290.163 878.872,255.327 C878.872,233.396 867.216,209.184 849.706,194.447 L910.565,204.971 C910.711,204.994 910.86,204.956 910.973,204.861 C911.086,204.766 911.151,204.626 911.151,204.479 L911.151,151.29 C911.151,151.013 910.927,150.79 910.651,150.79 L760.554,150.79 C760.43,150.79 760.316,150.835 760.229,150.91 C730.751,152.055 703.542,163.019 683.587,181.801 C663.164,201.021 651.917,227.134 651.917,255.327 C651.917,296.041 675.058,328.636 715.467,344.947 C693.169,352.794 678.519,370.863 678.014,391.303 C677.574,409.139 688.079,424.105 706.19,431.574 C677.788,441.234 631.304,463.419 628.275,505.699 C626.693,527.763 633.706,547.856 648.553,563.805 C672.682,589.725 715.491,604 769.094,604 C813.345,604 850.531,594.65 876.633,576.958 C902.659,559.319 916.416,534.28 916.416,504.549 C916.416,460.984 888.925,431.244 832.373,413.629 L832.373,413.629 Z" id="Fill-14" fill="#FFFFFF"></path>
            </g>
        </g>
    </g>
</svg>